<svg width="13" height="14" viewBox="0 0 13 14" fill="none" xmlns="http://www.w3.org/2000/svg">
<path d="M6.125 0C6.61719 0 7 0.382812 7 0.875V0.957031C8.99609 1.36719 10.5 3.14453 10.5 5.25V5.85156C10.5 7.16406 10.9375 8.44922 11.7578 9.46094L12.0312 9.78906C12.168 9.98047 12.25 10.1719 12.25 10.418C12.25 10.9375 11.8125 11.375 11.2656 11.375H0.984375C0.4375 11.375 0 10.9375 0 10.418C0 10.1719 0.0820312 9.98047 0.21875 9.78906L0.492188 9.46094C1.3125 8.44922 1.75 7.16406 1.75 5.85156V5.25C1.75 3.14453 3.25391 1.36719 5.25 0.957031V0.875C5.25 0.382812 5.63281 0 6.125 0ZM4.42969 12.6875H7.82031C7.62891 13.4531 6.94531 14 6.125 14C5.30469 14 4.62109 13.4531 4.42969 12.6875Z" fill="currentColor"
/>
</svg>
